<?xml version="1.0" encoding="utf-8"?>
<!-- Generator: Adobe Illustrator 27.7.0, SVG Export Plug-In . SVG Version: 6.00 Build 0)  -->
<svg version="1.1" id="Capa_1" xmlns="http://www.w3.org/2000/svg" xmlns:xlink="http://www.w3.org/1999/xlink" x="0px" y="0px"
	 viewBox="0 0 8192 1431.4" style="enable-background:new 0 0 8192 1431.4;" xml:space="preserve">
<style type="text/css">
	.st0{fill-rule:evenodd;clip-rule:evenodd;}
</style>
<g>
	<path class="st0" d="M21.3,1420.6c8.9,0,435-2.3,475.4-2.3c3.4-14.6,454.8-962.4,501-1023.1c50-65.7,92.4-51.2,163.2-51.2v1079
		h1400.6c114.1,0,216-26.4,303-93.2c100.5-77.2,152.7-177.4,171.1-304.3c9.3-64-4.6-146.2-30.5-199.9
		c-16.1-33.5-39.6-69.7-64.3-94.1L2900,693c-42.4-37.9-99.6-65.5-154.1-83.6c-93.8-31.1-185.2-32.3-284.6-32.3
		c-105.6,0-211.3,0-316.9,0c-63.5,0-97.3,6.3-135.9-22.6c-100.5-75.3-46.2-240.7,82.3-240.7h873.9V15.5h-920.5
		c-91.6,0-190.9,22.2-262.9,65.7c-77.2,46.7-117.8,90.6-158.1,170.5c-52.2,103.2-54.4,263.5-1.6,368.2c5.8,11.5,10.2,21.4,16.4,32.6
		c15.1,27.1,33.9,51.2,53.6,74.5c5.1,6,5.8,8,11.8,13.9c50.8,50.6,115.7,95.5,187.5,115.4c67,18.5,114.8,19.1,183.6,19.1
		c77.7,0,448.3-5.1,502.1,6c73,15,128,102.8,63.9,187.4l-4,5.5c-7.1,8.7-17.5,15.4-26.9,21.7c-38.7,25.8-1000.9,31.2-1052.4,31.2
		c0-188,7-1066.3,7-1113.9H946.5c-122,0-210.6,66-274.5,161.3C653.6,201.7,23.5,1411.3,21.3,1420.6L21.3,1420.6z"/>
	<path class="st0" d="M3736,556h-312.3V346.3H3757c64.8,0,151.5,19.6,151.5,97.9C3908.4,542.9,3821.6,556,3736,556L3736,556z
		 M3085.8,1413.6h337.9V886.9c148.5,0,273.6,26.5,365.2,133.5c39.3,45.8,64.2,111.5,79,170.4c7.7,30.8,15,71.8,17.3,106.2
		c1.1,17.1,4.6,40.6,4.7,58.2c0,10.1,0,20.3-0.1,30.4c-0.1,11.1-3.4,25.6,7,25.6h442.8c0-126.5-3.2-251.2-42.2-367.9
		c-4.6-13.9-10.1-29.1-16.1-42.2c-17.9-39.4-49.3-95.2-79.8-125.3c-6.6-6.5-8-10-13.9-16.4l-46.6-41.9
		c-35.9-29.3-65.4-48.7-104.8-72.4c-7.2-4.3-13.9-6.1-18.2-12.1c54.3-12.6,89.8-20.3,143.5-42.9c46.2-19.4,77.1-44,109.9-76.5
		c31.6-31.2,54.9-74.9,69-117.4c30.3-90.9,22.6-220.7-35.5-304.2c-25.5-36.8-58.3-68.1-96.4-92.4C4126.2,47,4020.9,12.9,3920,12.9
		h-834.3v1400.7H3085.8z"/>
	<path class="st0" d="M6919.3,1413.6h433.5l-2.3-503.3c86.6,0,145.8-2.3,224.5,34.2c12.8,5.9,21,9.6,32.3,16.6
		c38.3,23.8,73.9,60.4,95.8,100c3.3,5.9,4.8,9.6,8.2,15.1c11.1,18.4,28.4,67.5,33.3,90.2c22.6,106.2,20.7,136.3,20.7,247.2h412.5
		v-7.7v-82.5c-1-137-11.2-276.9-92.2-388.5c-26-35.7-34.9-48-68-81.2c-5.5-5.6-6.9-6.2-12.6-10.7c-11.6-9.2-19.4-18.6-40.3-34.3
		l-42.8-31.8c-5.7-3.7-10.7-6.1-14.4-11.2c45.5-10.6,114.9-62.6,154.4-97.3c26.3-23.2,62-71.8,77.9-103.9
		c22.5-45.2,35.6-102.1,24.3-158c-3-14.9-6.4-25.7-9.6-39.4h-347.2c-6.9,29.8-22.3,56.8-37.1,81.7l-30.9,48.4
		C7669,601.1,7516,643.9,7392.1,630.8c-11.4-1.2-27.1-2.7-36.9-2.7c-1.2-5.2,0,6.3,0,0l-2.3-615.2h-433.5L6919.3,1413.6
		L6919.3,1413.6z"/>
	<path class="st0" d="M5003.7,598c75,0,134.7,11,195.3,51.7c45.8,30.8,76.3,61.3,103.7,110.6c67.5,121.1,26.5,278.9-88,361
		c-27.6,19.8-42,27.5-73.9,40.3c-56.7,22.7-121.4,29.3-191.7,15.3c-40.4-8-85-28.3-117.4-50.4c-20.7-14.1-44.5-35.1-59.7-54.5
		c-26.7-34.2-46.1-61.1-58.2-109.6c-20.2-80.7-7.7-155.1,36.4-224.2C4801.9,657.3,4908.2,598,5003.7,598L5003.7,598z M4330.3,886.9
		c0,189,119.1,327.4,266.7,416.1c9.2,5.5,14,8.5,23.8,13.4c41.6,20.7,85.2,42,130.4,56c313.3,97,704.1,22.2,887.3-251.6
		c69.3-103.4,91.8-231.9,49.5-359c-14.7-44-38.5-88.2-65-123.7c-50.5-67.7-106.8-115.8-180.4-159.9l-49.6-27.1
		c-34.4-16.8-72.2-30.5-108.7-42.8c-119.2-40-269.2-52-402.1-29.8c-104.3,17.4-215.4,52-303.5,111.3l-66.4,47.8
		C4412.4,616.6,4330.3,748,4330.3,886.9L4330.3,886.9z"/>
	<path class="st0" d="M5730.8,879.9c0,69.6,7.8,104.6,35.7,164.7l14.8,27.1c3,5.4,5,7.7,8.2,12.8l27.5,40.1
		c18.9,24.6,60.1,68.3,84.9,87.6c36,28,50.7,37.6,89.5,62c77.7,49,206.3,90.6,304.4,110.4c56.5,11.4,181.8,24.1,192.4,24.3
		c41.6,1,83.6,4.6,128.3,4.6h258.7v-251.7c-118.9,0-294.8,5-403.5-25.3c-49.6-13.8-94.9-32.9-137.2-60.8
		c-134.8-88.9-160.4-229.6-39-342c86-79.7,235.9-112.7,353.6-112.4l226.1,1l0,0V367.2c-242.1,0-531-9.4-752.8,79.2
		c-21.4,8.5-45.3,17.9-65.2,28c-40.6,20.5-79.1,41.1-114.6,67.2c-23.6,17.4-53.6,41.5-74.8,62.7l-43.2,47.7
		C5775.9,711.6,5730.8,800.6,5730.8,879.9L5730.8,879.9z"/>
	<path class="st0" d="M4782.4,882.3c0,56.1,11.2,91.7,41.6,133.2c9.1,12.5,15.9,18.5,26.6,29.4c15.8,15.9,34.1,28.9,54.2,39
		c3.8,1.9,5.8,2.5,9.7,4.3c154.5,72.2,343.4-31.9,343.4-198.9c0-123.2-114.5-219-228.4-219c-46.2,0-67.6,3.4-108.6,19.6
		C4846.8,719.1,4782.4,801.3,4782.4,882.3L4782.4,882.3z"/>
	<path class="st0" d="M7986.7,78.3c32.5,0,44.3,10.3,62,24.2c53.8,42.3,32.6,157.6-62,157.6c-97.3,0-123.4-134.2-37.3-172.5
		C7956.8,84.3,7976.5,78.3,7986.7,78.3L7986.7,78.3z M7874.8,159.9v16.3c0,57.2,52.9,107.2,114.2,107.2c58.8,0,111.9-51,111.9-109.5
		c0-67.3-39.6-118.6-112.2-118.5c-25.3,0-60.4,13.9-78.4,30.5C7895,100,7874.8,131.4,7874.8,159.9L7874.8,159.9z"/>
	<path class="st0" d="M7996,159.9h-30.3v-28c43.4,0,44.2-3.2,44.2,18.6C8010,157.7,8003.1,159.9,7996,159.9L7996,159.9z
		 M7940.1,227.4h25.6v-46.6c11.8,0,16.7-1.4,23.7,6.5c2.5,2.8,7.2,9.8,9.8,13.5c6.5,9.5,11.7,17.6,17.7,26.6h28
		c-3.5-13.2-24.6-40.3-37.3-51.3c36.7-3.1,43.6-65.3-11.6-65.3h-55.9L7940.1,227.4L7940.1,227.4z"/>
</g>
</svg>
