<?xml version="1.0" encoding="utf-8"?>
<!-- Generator: Adobe Illustrator 27.7.0, SVG Export Plug-In . SVG Version: 6.00 Build 0)  -->
<svg version="1.1" id="Isologotipo_Compra_Gamer_RGB"
	 xmlns="http://www.w3.org/2000/svg" xmlns:xlink="http://www.w3.org/1999/xlink" x="0px" y="0px" viewBox="0 0 529 133.9"
	 style="enable-background:new 0 0 529 133.9;" xml:space="preserve">
<style type="text/css">
	.st0{fill-rule:evenodd;clip-rule:evenodd;fill:url(#iso_00000057132731519783900750000018184157594876093090_);}
	.st1{fill-rule:evenodd;clip-rule:evenodd;fill:#FFFFFF;}
</style>
<linearGradient id="iso_00000072280391521046236930000014118471744568677513_" gradientUnits="userSpaceOnUse" x1="4.84" y1="68.3201" x2="168.8602" y2="68.3201">
	<stop  offset="0" style="stop-color:#C80A00"/>
	<stop  offset="1" style="stop-color:#F0370A"/>
</linearGradient>
<path id="iso" style="fill-rule:evenodd;clip-rule:evenodd;fill:url(#iso_00000072280391521046236930000014118471744568677513_);" d="
	M129.4,8.1c1.9-0.1,3.8,0.2,5.4,1l30,15.2v0c0.8,0.4,1.4,0.9,1.9,1.5c0.8,0.9,1.1,1.9,1.1,2.9v0l-0.1,26.9c0,0.3,0,0.5-0.1,0.8
	c-0.2,1-0.7,1.9-1.3,2.6c-0.7,0.8-1.6,1.4-2.5,1.9v0l-11.6,5.9l13.7,6.9c0.8,0.4,1.4,0.9,1.9,1.5c0.8,0.9,1.1,1.9,1.1,2.9v0
	l-0.1,29.3c0,0.3,0,0.5-0.1,0.8c-0.2,1-0.7,1.9-1.3,2.6l0,0c-0.7,0.8-1.6,1.4-2.4,1.9l-28.3,14.4c-1.5,0.8-3.5,1.3-5.5,1.4
	c-1.9,0.1-3.8-0.2-5.4-1l-30-21.1c-0.8-0.4-1.4-0.9-1.9-1.5c-0.8-0.9-1.1-1.9-1.1-2.9l0-3.6l-0.5,0.3c-1.5,0.8-3.5,1.3-5.5,1.4
	c-1.9,0.1-3.8-0.2-5.4-1L51.5,84v0c-0.8-0.4-1.4-0.9-1.9-1.5c-0.8-0.9-1.1-1.9-1.1-2.9l0-2.9c-1.5,0.7-3.4,1.2-5.3,1.3
	c-1.9,0.1-3.8-0.2-5.4-1l-30-9.4c-0.8-0.4-1.4-0.9-1.9-1.5c-0.8-0.9-1.1-1.9-1.1-2.9L5,33.8C5,33.5,5,33.2,5,33
	c0.2-1,0.7-1.9,1.3-2.6c0.7-0.8,1.6-1.4,2.5-1.9v0l28.3-14.4c1.5-0.8,3.5-1.3,5.5-1.4c1.9-0.1,3.8,0.2,5.4,1l30,15.2
	c0.8,0.4,1.4,0.9,1.9,1.5c0.8,0.9,1.1,1.9,1.1,2.9v0l0,2.9c1.5-0.7,3.4-1.2,5.3-1.3c1.9-0.1,3.8,0.2,5.4,1l0.2,0.1l0-6.9
	c0-0.3,0-0.5,0.1-0.8c0.2-1,0.7-1.9,1.3-2.6c0.7-0.8,1.6-1.4,2.4-1.9l28.3-14.4C125.4,8.7,127.4,8.2,129.4,8.1L129.4,8.1z
	 M126.8,61.9L98.5,76.3c-1.2,0.6-2.7,1.9-0.8,2.8l30,15.2c2,1,5.4,0.6,7.3-0.4l28.3-14.4c1.2-0.6,2.7-1.9,0.8-2.8l-30-15.2
	C132.2,60.5,128.7,60.9,126.8,61.9L126.8,61.9z M90.7,71.3l28.3-14.4c1.2-0.6,2.7-1.9,0.8-2.8l-30-15.2c-2-1-5.4-0.5-7.3,0.4
	L54.2,53.7c-1.2,0.6-2.7,1.9-0.8,2.8l30,15.2C85.3,72.7,88.7,72.3,90.7,71.3L90.7,71.3z M46.2,16.6c-2-1-5.4-0.5-7.3,0.4L10.6,31.4
	c-1.2,0.6-2.7,1.9-0.8,2.8l30,15.2c2,1,5.4,0.6,7.3-0.4l28.3-14.4c1.2-0.6,2.7-1.9,0.8-2.8L46.2,16.6L46.2,16.6z M133,12
	c-2-1-5.4-0.5-7.3,0.4L97.4,26.8c-1.2,0.6-2.7,1.9-0.8,2.8l30,15.2c2,1,5.4,0.6,7.3-0.4l28.3-14.4c1.2-0.6,2.7-1.9,0.8-2.8L133,12z"
	/>
<g id="logo">
	<path class="st1" d="M356,33v8.1h14.3c4.2-0.1,3.8-8.1,0-8.1H356L356,33z M350,25.6L350,25.6l24.5,0c5.1,0,9.5,3.8,10.1,8.9
		c0.1,1.1,0.1,4.4,0,5.6c-0.6,5.1-5,8.9-10.1,8.9H356v4.9v1.4v0v1.4c0,0.7-0.5,1.2-1.2,1.2c-2.5,0-6,0-8.5,0c-0.7,0-1.2-0.5-1.2-1.2
		v-1.4l0,0V28.8h0v-2c0-0.7,0.6-1.3,1.3-1.3H350z"/>
	<path class="st1" d="M447.4,56.3L447.4,56.3L447.4,56.3L447.4,56.3L447.4,56.3l-0.2,0.3c-0.4,0.7-1.3,1.2-2,1.2
		c-2.5,0-8.3,0-10.8,0c-0.7,0-0.9-0.5-0.5-1.2l0.2-0.3c0,0,0,0,0-0.1l16.6-26.7l0,0l1.7-2.8c0.4-0.6,1.3-1.2,1.9-1.2
		c3.7,0,3.2,0,6.9,0c0.6,0,1.6,0.5,2,1.2l0.9,1.4h0l20.1,33.5c0.1,0.2,0.1,0.4,0,0.5c-0.1,0.2-0.3,0.3-0.4,0.3h-12.1
		c-0.2,0-0.4-0.1-0.4-0.3l-13.4-24.2L447.4,56.3z"/>
	<path class="st1" d="M222.9,47.1h11c0.1,0,0.3,0.1,0.4,0.2c0.1,0.1,0.1,0.2,0.1,0.4c0,0.4-0.1,0.8-0.2,1.2
		c-0.7,5.1-4.9,8.9-10.1,8.9h-21.4c-5.1,0-9.4-3.8-10.1-8.8c-0.5-3.4-0.5-11.1,0-14.5c0.7-5,5-8.8,10.1-8.8h21.4
		c5.1,0,9.4,3.8,10.1,8.8c0.1,0.4,0.1,0.8,0.2,1.2c0,0.1,0,0.3-0.1,0.4c-0.1,0.1-0.2,0.2-0.4,0.2h-11.1c-0.2,0-0.4-0.1-0.5-0.4
		c-0.5-1.7-2.1-2.5-3.9-2.5c-3.3,0-7.3,0-10.5,0c-1.9,0-3.6,1-4,2.9c-0.4,2.2-0.4,8.7,0,10.9c0.4,1.9,2,2.9,4,2.9
		c3.3,0,7.3,0,10.5,0c1.8,0,3.4-0.8,3.9-2.5C222.5,47.3,222.7,47.1,222.9,47.1z"/>
	<path class="st1" d="M314.9,57.9l-1.6,0c-0.5,0-0.9-0.2-1.2-0.6l-9.2-16c0,5.1,0,10.3,0,15.4c0,0.7-0.5,1.2-1.2,1.2
		c-2.5,0-6,0-8.5,0c-0.7,0-1.2-0.5-1.2-1.2c0-10,0-19.9,0-29.9c0-0.7,0.5-1.2,1.2-1.2l7.7,0h1.3c0.7,0,1.7,0.6,2.1,1.3
		c3.5,6.1,7,12.2,10.4,18.3l0,0l0,0c3.5-6.1,7-12.2,10.4-18.3c0.4-0.7,1.4-1.3,2.1-1.3l9,0c0.7,0,1.2,0.5,1.2,1.2
		c0,10,0,19.9,0,29.9c0,0.7-0.5,1.2-1.2,1.2c-2.5,0-6,0-8.5,0c-0.7,0-1.2-0.5-1.2-1.2c0-5.1,0-10.3,0-15.4l-9.1,16
		c-0.2,0.4-0.7,0.6-1.2,0.6L314.9,57.9z"/>
	<path class="st1" d="M274.1,47.2c0.4-2.2,0.4-8.7,0-10.9c-0.4-1.9-2.1-3.3-4-3.3c-4.2,0-9,0-13.2,0c-1.9,0-3.6,1.4-4,3.3
		c-0.5,2.2-0.4,8.7,0,10.9c0.4,1.9,2.1,3.3,4,3.3c4.1,0,9,0,13.1,0C272,50.4,273.7,49.1,274.1,47.2L274.1,47.2z M285,34.4
		c0.5,3.4,0.5,11,0,14.5c-0.7,5.1-5,8.9-10.2,8.9h-22.8c-5.1,0-9.4-3.8-10.1-8.9c-0.5-3.5-0.5-11.1,0-14.5c0.7-5.1,5-8.9,10.1-8.9
		h22.8C280,25.5,284.3,29.4,285,34.4z"/>
	<path class="st1" d="M415,41.3c1.1,0,2.1-0.6,2.6-1.5c0.6-0.9,0.6-4.2,0-5.1c-0.5-0.9-1.5-1.5-2.6-1.5h-13.6v8H415L415,41.3z
		 M395.4,25.6L395.4,25.6l23.8,0c5.1,0,9.5,3.8,10.2,8.9c0.1,1.1,0.1,4.4,0,5.5c-0.3,2.9-1.9,5.5-4.3,7.1c-0.1,0.1-0.2,0.2-0.4,0.2
		l5.4,9.4c0.4,0.6,0.4,1.1-0.3,1.2l-9.1,0c-0.4,0-0.9-0.1-1.1-0.5l-4.8-8.3l-13.4,0v4.9h0v2.8c0,0.7-0.5,1.2-1.2,1.2
		c-2.5,0-6,0-8.5,0c-0.7,0-1.2-0.5-1.2-1.2v-1.2v0v-1.6v-25V27v-0.1c0-0.7,0.6-1.3,1.3-1.3H395.4z"/>
	<path class="st1" d="M359.9,112c-0.9,0-1.2-0.7-1.4-1l-11.7-20.6l0,20.4c0,0.7-0.5,1.2-1.2,1.2c-2.5,0-11.1,0-13.6,0
		c-0.7,0-1.2-0.5-1.2-1.2c0-13.8,0-27.5,0-41.3c0-0.7,0.5-1.2,1.2-1.2c4.9,0,9.7,0,14.6,0c0.7,0,1.5,0.5,1.9,1.2l0.1,0.2l0,0
		c4.9,8.6,9.8,17.3,14.8,25.9c4.9-8.6,9.8-17.3,14.8-25.9l0,0l0.1-0.2c0.4-0.7,1.2-1.2,1.9-1.2c4.9,0,9.7,0,14.6,0
		c0.7,0,1.2,0.5,1.2,1.2c0,13.8,0,27.5,0,41.3c0,0.7-0.5,1.2-1.2,1.2c-2.5,0-11.1,0-13.6,0c-0.7,0-1.2-0.5-1.2-1.2l0-20.4L368.1,111
		c-0.2,0.4-0.5,1-1.4,1h-3.4H359.9z"/>
	<path class="st1" d="M420.3,85h29.4c0.3,0,0.5,0.2,0.5,0.5v8.9c0,0.3-0.2,0.5-0.5,0.5h-29.4v6.5h36.6c0.3,0,0.4,0.2,0.5,0.5
		l2.5,9.5c0.1,0.3-0.2,0.5-0.5,0.5c-13.3,0-29.1,0-41.6,0l-0.1,0h-10.4c-0.7,0-1.2-0.5-1.2-1.2v-0.7V108V72.3v-1.4v-1.4
		c0-0.7,0.5-1.2,1.2-1.2c2.5,0,11.1,0,13.6,0l0,0c13,0,24.7,0,38.5,0c0.3,0,0.6,0.2,0.5,0.5l-2.5,9.5c-0.1,0.3-0.2,0.5-0.5,0.5
		h-36.6V85z"/>
	<path class="st1" d="M243.1,95.1l-11.3,0c-0.2,0-0.4-0.1-0.5-0.3c-0.1-0.2-0.1-0.4,0-0.6L236,85c0.1-0.2,0.3-0.3,0.5-0.3l20.2,0
		c0.3,0,0.6,0.3,0.6,0.6l0,8.2c0,3,0,7.7-0.5,10.6c-1,5.4-5.5,7.7-10.6,7.9c-4.4,0.1-11.2,0.1-15.6,0.1c-4.3,0-8.6,0-13,0
		c-3,0-9.6,0-12.5-0.3c-4.7-0.4-9.7-2.6-11.1-7.4c-0.6-2-0.9-4-0.9-6.1c-0.1-2-0.1-4-0.1-6c0-3.3,0-11,0.6-14.2
		c0.6-3.1,1.8-6.3,4.7-7.9c1.9-1.1,4.5-1.8,7.6-1.8l47.8,0.2c0.2,0,0.4,0.1,0.5,0.3c0.1,0.2,0.1,0.4,0,0.6l-4.8,9.1
		c-0.1,0.2-0.3,0.3-0.5,0.3c-11.5,0-23.1,0-34.6,0c-4.1,0-4.9,1.6-5.1,5.3c-0.1,1.9-0.1,6.8-0.1,8.7c0,1.7,0,5,0.7,6.5
		c1.2,2.7,3.8,2.4,6.2,2.4c2.1,0,4.1,0.1,6.2,0.1c4.3,0,8.5,0.1,12.8,0.1c1.6,0,3.5,0.1,5-0.1c1.3-0.2,2.7-0.6,3.1-2
		c0.2-0.6,0.2-3,0.2-3.6C243.1,95.6,243.1,95.4,243.1,95.1z"/>
	<g>
		<path class="st1" d="M504.2,89.5c1.4,0,2.8-0.8,3.5-2c0.8-1.2,0.8-5.3,0-6.5c-0.7-1.2-2.1-2-3.5-2h-19.3v10.5H504.2L504.2,89.5z
			 M469.6,108L469.6,108l0-34.9v-0.6v-3.1c0-0.7,0.5-1.2,1.2-1.2c2.5,0,8.3,0,10.8,0c0,0,0.1,0,0.1,0h27.3c7,0,12.9,5.2,13.8,12.1
			c0.2,1.5,0.2,5.9,0,7.4c-0.5,3.9-2.6,7.4-5.8,9.6c-0.2,0.1-0.3,0.2-0.5,0.3l6.8,11.8h0l0.8,1.3c0.1,0.1,0.1,0.2,0.2,0.3l0.7,1.2
			c0.4,0.7,0.2,1.2-0.5,1.2c-2.5,0-9.8,0-12.3,0c-0.7,0-1.6-0.5-2-1.2l-0.4-0.6c0,0,0,0,0-0.1l-6.7-11.7l-2.2,0h0h-0.1h-16v8.1v2.3
			v0v0.5c0,0.7-0.5,1.2-1.2,1.2c-2.5,0-10.3,0-12.8,0c-0.7,0-1.2-0.5-1.2-1.2V108L469.6,108z M524.1,110.9L524.1,110.9l-0.8-1.3
			L524.1,110.9z"/>
	</g>
	<path class="st1" d="M280.3,106.1L280.3,106.1l-2.4,4.2c-0.6,1-1.9,1.8-2.9,1.8c-3.7,0-12.1,0-15.8,0c-1,0-1.3-0.8-0.7-1.8l0.4-0.6
		c0,0,0-0.1,0-0.1l24-37.5l1.6-2.5c0.4-0.7,1.3-1.2,2-1.2c3.8,0,7.5,0,11.3,0c0.7,0,1.6,0.5,2,1.2l1.7,2.6l24,37.4c0,0,0,0.1,0,0.1
		l0.4,0.6c0.6,1,0.3,1.8-0.7,1.8c-3.7,0-12.1,0-15.8,0c-1,0-2.3-0.8-2.9-1.8l-2.4-4.2h0l-11.8-20.3L280.3,106.1z"/>
	<rect x="447.7" y="45.5" class="st1" width="21.5" height="7.3"/>
	<rect x="278.7" y="94.6" class="st1" width="28.7" height="9.8"/>
</g>
</svg>
